PathFileType	4	(X/Y/Z)	Formatted/subject18/trials/walk2/markers.trc
DataRate	CameraRate	NumFrames	NumMarkers	Units	OrigDataRate	OrigDataStartFrame	OrigNumFrames
200.00000000000426	200.00000000000426	4	54	m	200.00000000000426	188	215
Frame#	Time	CLAV			C7			RACR			RASH			RPSH			RLEL			RMEL			RUA1			RUA2			RUA3			RFAsuperior			RFAradius			RFAulna			RASI			RPSI			RCAL			RTOE			RMT5			RTH1			RTH2			RTH3			RTB1			RTB2			RTB3			RLFC			RMFC			RLMAL			RMMAL			LACR			LASH			LPSH			LLEL			LMEL			LUA1			LUA2			LUA3			LFAsuperior			LFAradius			LFAulna			LASI			LPSI			LCAL			LTOE			LMT5			LTH1			LTH2			LTH3			LTB1			LTB2			LTB3			LLFC			LMFC			LLMAL			LMMAL			
		X1	Y1	Z1	X2	Y2	Z2	X3	Y3	Z3	X4	Y4	Z4	X5	Y5	Z5	X6	Y6	Z6	X7	Y7	Z7	X8	Y8	Z8	X9	Y9	Z9	X10	Y10	Z10	X11	Y11	Z11	X12	Y12	Z12	X13	Y13	Z13	X14	Y14	Z14	X15	Y15	Z15	X16	Y16	Z16	X17	Y17	Z17	X18	Y18	Z18	X19	Y19	Z19	X20	Y20	Z20	X21	Y21	Z21	X22	Y22	Z22	X23	Y23	Z23	X24	Y24	Z24	X25	Y25	Z25	X26	Y26	Z26	X27	Y27	Z27	X28	Y28	Z28	X29	Y29	Z29	X30	Y30	Z30	X31	Y31	Z31	X32	Y32	Z32	X33	Y33	Z33	X34	Y34	Z34	X35	Y35	Z35	X36	Y36	Z36	X37	Y37	Z37	X38	Y38	Z38	X39	Y39	Z39	X40	Y40	Z40	X41	Y41	Z41	X42	Y42	Z42	X43	Y43	Z43	X44	Y44	Z44	X45	Y45	Z45	X46	Y46	Z46	X47	Y47	Z47	X48	Y48	Z48	X49	Y49	Z49	X50	Y50	Z50	X51	Y51	Z51	X52	Y52	Z52	X53	Y53	Z53	X54	Y54	Z54	

189	3.38	1.994923907454657	1.432387437846237	-0.4870659958197996	1.895790230996355	1.532747496019506	-0.5180691311219973	1.899410543552506	1.496251522493303	-0.3559205394751773	1.95435529681608	1.4423339232748	-0.3685723785357017	1.841149922550971	1.470521985253053	-0.3711134815297075	1.784757877654624	1.183700860685817	-0.2833919632404563	1.771130523274602	1.172190184914116	-0.3571082232253119	1.893314907404741	1.386548567803291	-0.3032976112912978	1.831367077558988	1.353265946126337	-0.3146305081597184	1.865066015657353	1.287399672457357	-0.3151207419106565	1.826976717714393	1.105021386112281	-0.2979865642317135	1.832643274306482	0.9401158951652274	-0.2894420368207549	1.77171800601192	0.9398122034232287	-0.2720818908569489	1.950773239760506	1.053070335243566	-0.4002042197166243	1.784736270168301	1.092975068577874	-0.4665348039642935	1.896429039870884	0.1228500494972938	-0.4189313862549719	2.101733748952238	0.0508456760621476	-0.4632303963473078	2.091271431669319	0.05812707756861263	-0.3900386670812653	1.977720796105177	0.8625465903466779	-0.3441001754324368	2.061628359762107	0.7707307610740082	-0.3773702905705481	2.053472732710535	0.6246045053971198	-0.3631168915652071	2.088287948379427	0.4251293917772578	-0.425265088537802	2.017500787552609	0.3524257394141223	-0.360137644347899	2.031778107912983	0.2343112561964142	-0.4237229194135888	2.091670407824765	0.5525994205555496	-0.3677329658462975	2.092149039034422	0.5632380457959141	-0.480022596748471	1.968395430627872	0.1447522861014678	-0.3786119592461575	1.983223564838901	0.1484467746702893	-0.4600434374579997	1.938038239700042	1.498433650882331	-0.6785870952797075	1.977212461130529	1.436274530220925	-0.6384761016489364	1.876881285852803	1.476949139374155	-0.6697557168305501	1.930212992741352	1.161267848383178	-0.7837788920534451	1.896269956427657	1.15093223153059	-0.7201122619157447	1.934231220713733	1.370071552940079	-0.7422686565996549	1.884648706550972	1.302372036831313	-0.7253409995214051	1.956591184116441	1.288100227658063	-0.7389236884148296	1.990427775446205	1.105695531390374	-0.7552817307169755	2.072829678474353	0.9658674745534249	-0.7451080911071846	2.028687585064837	0.9459804865691591	-0.7812536993274686	1.941802564491936	1.049494063399987	-0.6545186987150692	1.776306484558174	1.089326383752364	-0.5663255816676415	1.63307703590375	0.06630322192551735	-0.5998134849424691	1.8441542782797	0.02025168799240423	-0.5250785968694405	1.830278364770918	0.02275461406043671	-0.6198274290483917	1.863955888830846	0.8082072188952032	-0.6954520128182256	1.908703975011143	0.7033804559740096	-0.6637737978466622	1.846571270034727	0.5984771064389751	-0.6570739829415632	1.822284217461878	0.374478095002838	-0.5846757741787247	1.752905098033899	0.2792498605571215	-0.6457428010923265	1.762158606635206	0.166839913675642	-0.594495261941525	1.834548460700329	0.5144262315117845	-0.6468119871632835	1.837637447608315	0.5142724537496531	-0.5320694985893653	1.702125699014163	0.09843972237732801	-0.6358568661013239	1.707326654942058	0.1014591195035967	-0.5583581356564129	
190	3.385	2.000737068854794	1.431713255838961	-0.4865944189768446	1.901724777681626	1.532128413550053	-0.5178063362800772	1.90501157876855	1.495660548449359	-0.3556443176897512	1.959947339534193	1.441706830103321	-0.3681807013003434	1.846764401707047	1.469963976768221	-0.3709442230017543	1.789322395558686	1.183441470319957	-0.2836050611502255	1.775970892390333	1.171966054420868	-0.3573772755901024	1.898505714359464	1.385996505382298	-0.3030605611913373	1.836516385878955	1.352880173292859	-0.3146507632257047	1.870040039908317	1.286923617987504	-0.3150003313824664	1.831168649436823	1.104557998243726	-0.2979530414882289	1.835870187530407	0.9396259650396734	-0.2893356335537922	1.774851778263081	0.9396666953790289	-0.2723030974875546	1.956757999013585	1.05240931053145	-0.4002766081718833	1.790559616708119	1.092454925365136	-0.4661162305289423	1.916427048900698	0.1161775475770367	-0.4185304471104918	2.123843909903734	0.04998800548462097	-0.462248715308657	2.113039597546094	0.05717028818696404	-0.3890968884453265	1.983310409103945	0.8617929783318775	-0.3438781293381555	2.067122719056774	0.769876948364014	-0.37711164315314	2.05876846654702	0.6237579005159477	-0.3628994457531965	2.098121515026285	0.4244008027408444	-0.4248202891339856	2.029639231774512	0.3494520073407406	-0.359773520265212	2.048036119727695	0.2317976491721589	-0.4231530654293704	2.096876393203612	0.5517046801493714	-0.3675061940297915	2.097447590876643	0.5623698366455081	-0.4797928753999227	1.987572112041016	0.1402244972730693	-0.3780794228291211	2.00248346253454	0.1443051300264214	-0.4594772638110706	1.94425953799099	1.497758593054174	-0.6782365722998711	1.983318511885829	1.43558291399737	-0.6380389454017643	1.88307255611189	1.47631331916734	-0.6695185472726141	1.937631682811273	1.160589261196788	-0.783579665317496	1.903472280032553	1.15013178338078	-0.7200488000429237	1.940899985113246	1.369386424020944	-0.7419708220651476	1.891443790062058	1.301540325391503	-0.7252619191076476	1.963478207011806	1.287477155109821	-0.738572218475035	1.998232959644012	1.105543693419068	-0.7547226855379604	2.081810794309507	0.9664686594248528	-0.7438441508709127	2.037977589790408	0.9460949908621397	-0.78009446819585	1.947018427699839	1.048783929872362	-0.6545621058492478	1.781826040577114	1.088791581916223	-0.5658803426322776	1.633193955856935	0.06663850473646117	-0.5996329506436773	1.844238675392166	0.02018570493151217	-0.5251536989495211	1.830237478611541	0.02267256459064599	-0.6198845219778591	1.868149393084595	0.8076430858175794	-0.6952838309833904	1.91206084660722	0.7024595520395561	-0.6636174573890271	1.849099488400984	0.5980492593953187	-0.6569517650852018	1.823571471388308	0.374190915740738	-0.5845992698865549	1.753778594598519	0.2792442014384189	-0.6456331655259111	1.762635416313961	0.166788949455681	-0.5944149377261888	1.836410536074044	0.5140939897371242	-0.6467092427818139	1.839474123889213	0.5138928256461732	-0.5319661465426028	1.702307270465292	0.09862993299951456	-0.6357450933022847	1.707577952251771	0.1016135445328497	-0.558249687645776	
191	3.39	2.006572051558842	1.430999125978873	-0.4861117603485401	1.907673258976161	1.531461867082623	-0.517529716342783	1.910640074130432	1.49502956351205	-0.3553535350335086	1.965569026346456	1.441042563263626	-0.3677759527097064	1.85240705804997	1.46936170512597	-0.3707552043715699	1.793930694760834	1.183142286431045	-0.2838001875277272	1.780859094475876	1.171697480476886	-0.3576272632719059	1.903728465860819	1.385407557477186	-0.3028071705974919	1.841701290344696	1.352454035342699	-0.3146560505506314	1.875052104196205	1.286409309295189	-0.3148613354168853	1.835423964427257	1.104066077776263	-0.2978986584702165	1.839207169649326	0.9391141098828621	-0.2892110003784872	1.778097900049165	0.93948217690085	-0.2725113923313431	1.962783344420883	1.051660886542863	-0.4003351093666564	1.796424769581819	1.091880030185954	-0.4656623967939921	1.936396143231636	0.1098173101405929	-0.4181065554009947	2.14574493622398	0.04943445827296851	-0.4612132241880073	2.134590493413246	0.05651690428633017	-0.3881042268769351	1.988886364845086	0.860909717272054	-0.3436686469525723	2.072541149236936	0.7688404789643719	-0.3768749522419204	2.063899480403276	0.6227347053174799	-0.3626981860108752	2.107733352056218	0.4236268805109371	-0.4243725341097817	2.041621146431453	0.3465115338870152	-0.3594061830188396	2.064136638299092	0.2294533949325039	-0.4225600028407873	2.101872052850303	0.5506096779923442	-0.3672989407365965	2.102526087697642	0.5612972609398725	-0.4795830377946586	2.006652843191072	0.135964585866117	-0.3775197151990385	2.021649695853052	0.1404307341362785	-0.4588816005237715	1.950485485626249	1.497031538552374	-0.6778731501073789	1.989435639627979	1.434843519288587	-0.6375891150634553	1.889270623758452	1.475622139611243	-0.6692633413164442	1.945039280217212	1.159871472182338	-0.7833806701234318	1.910665599550169	1.149289187477404	-0.7199861923605311	1.947570556338256	1.368656912003909	-0.7416617823162935	1.898238489172618	1.30066638672819	-0.7251744724048191	1.9703620274206	1.286808739400974	-0.7382149821363244	2.00602240759499	1.105356539045929	-0.7541624549223779	2.090768388294343	0.967047712606671	-0.7425758536663055	2.047250063354828	0.9461896289103451	-0.7789299103072213	1.952254736877942	1.048038900401858	-0.6545892078644483	1.787379292180087	1.088223202200241	-0.5653989520216782	1.633314634972168	0.06698574729935791	-0.5994522786494025	1.844320449139503	0.02011659432119082	-0.5252289824438929	1.830192122116154	0.02258166164964513	-0.6199414981557448	1.872357438717956	0.8070512394752724	-0.6951153019466818	1.915436657763098	0.7015192957909782	-0.6634650176857839	1.851656016086012	0.5976054641884253	-0.6568303632069147	1.824885879495913	0.3738949372481573	-0.5845246305878781	1.754670018993036	0.2792380749482251	-0.6455235812156453	1.763122711209986	0.1667375914959298	-0.5943364044461673	1.838306416368486	0.5137503154444536	-0.6466074333832701	1.841351912427555	0.5135008928825333	-0.5318639502829502	1.702492965738965	0.09882653351073195	-0.635633385367353	1.707836637180919	0.1017724877059646	-0.5581415377216618	
192	3.395	2.012429614108006	1.430244661053755	-0.4856183077097331	1.913636418953276	1.530747847452583	-0.5172384847814924	1.916297663237357	1.494357672525854	-0.3550475433965333	1.971221824464615	1.440340179364974	-0.3673580833681176	1.858079347377003	1.468714474936439	-0.3705455642420649	1.798584122558739	1.182802619032102	-0.2839757452476377	1.785794732891044	1.171384303254827	-0.3578563313783192	1.90898540155864	1.38478056246973	-0.3025370969010289	1.846923550393977	1.351986806250766	-0.3146448325599521	1.880103526616494	1.285855795982268	-0.3147033463701358	1.83974376891466	1.103544591602591	-0.2978234719595652	1.842655477067195	0.9385784795259853	-0.2890688401146576	1.781457961546332	0.9392567256113459	-0.2727054880850625	1.968848182193984	1.050828300075956	-0.4003785734852794	1.802331107856692	1.091249941083092	-0.4651749029563308	1.95628674042508	0.1038019287922046	-0.4176651339071014	2.167388376850461	0.04920661163417025	-0.460132441844531	2.155875946190862	0.05618596920775805	-0.3870690403910784	1.99445752047608	0.859904827485641	-0.3434731414643379	2.077896185915986	0.7676340455045313	-0.3766637757965556	2.068886814640385	0.6215477381124702	-0.3625153392847782	2.11712371766779	0.4228199760069007	-0.4239268021338975	2.053436231958365	0.3436251779097873	-0.3590398596112326	2.080049135042018	0.2272979342681423	-0.4219500019082887	2.106682106571371	0.5493295321780962	-0.3671141878813814	2.107404936902052	0.5600346273825751	-0.4793961948814445	2.025593427840624	0.1319997856477971	-0.3769387760390218	2.040676790744951	0.1368510119426548	-0.4582626115404518	1.956715814000194	1.496253256225581	-0.6774965264621968	1.995563698080815	1.434056813440725	-0.6371268333310806	1.895475193753522	1.474876445782556	-0.6689895357477115	1.952437504457634	1.159114111341628	-0.7831798677024039	1.917852169823338	1.148404241331896	-0.7199220792837794	1.954242868509261	1.36788306782467	-0.7413409347598062	1.905033497063614	1.299749917100687	-0.7250772543470682	1.977243441487111	1.286095240340629	-0.7378509688360135	2.013797446052151	1.105133297911804	-0.7535995936837299	2.099702467451993	0.9676030234517387	-0.741302726212744	2.056504494548825	0.9462633073216942	-0.7777591844584557	1.957514216769312	1.047259553040437	-0.6545987973772283	1.792967158083615	1.087619670868461	-0.5648830324335388	1.633439598845879	0.06734690937977526	-0.5992718688696628	1.844399454490132	0.02004480355449635	-0.5253044559160516	1.830142318404415	0.02248256152796152	-0.6199983745200278	1.876584601392495	0.8064314851989822	-0.6949452593594874	1.918836824478208	0.7005596025841263	-0.6633154496695555	1.854246940695946	0.5971450406681	-0.6567087418790692	1.826232208721707	0.3735893974157902	-0.5844510744808572	1.755583082540582	0.2792320010211998	-0.6454137133656218	1.763622251672702	0.166686244382062	-0.5942594538114694	1.8402427827392	0.5133943098842819	-0.6465055692955133	1.843277626823115	0.513095506674478	-0.5317619219337455	1.702683787711339	0.09903099711313368	-0.6355219015426014	1.708103380195965	0.1019371766568524	-0.5580338246539389	
